# 3ds Max Wavefront OBJ Exporter v0.97b - (c)2007 guruware
# File Created: 14.09.2016 07:10:10

#
# object LowPolyWall
#

v  14.4506 0.3042 -0.0308
v  84.3366 0.3042 -0.0308
v  84.3366 7.2928 -0.0308
v  14.4506 7.2928 -0.0308
v  84.3366 14.2814 -0.0308
v  14.4506 14.2814 -0.0308
v  84.3366 21.2700 -0.0308
v  14.4506 21.2700 -0.0308
v  84.3366 28.2586 -0.0308
v  14.4506 28.2586 -0.0308
v  84.3366 35.2472 -0.0307
v  14.4506 35.2472 -0.0307
v  84.3366 42.2358 -0.0307
v  14.4506 42.2358 -0.0307
v  84.3366 49.2244 -0.0307
v  14.4506 49.2244 -0.0307
v  84.3366 56.2130 -0.0307
v  14.4506 56.2130 -0.0307
v  84.3366 63.2016 -0.0307
v  14.4506 63.2016 -0.0307
v  14.4506 0.3042 -6.7398
v  14.4506 7.2928 -6.7398
v  84.3366 7.2928 -6.7398
v  84.3366 0.3042 -6.7398
v  14.4506 14.2814 -6.7398
v  84.3366 14.2814 -6.7398
v  14.4506 21.2700 -6.7398
v  84.3366 21.2700 -6.7398
v  14.4506 28.2586 -6.7398
v  84.3366 28.2586 -6.7398
v  14.4506 35.2472 -6.7398
v  84.3366 35.2472 -6.7398
v  14.4506 42.2358 -6.7398
v  84.3366 42.2358 -6.7398
v  14.4506 49.2244 -6.7398
v  84.3366 49.2244 -6.7398
v  14.4506 56.2130 -6.7398
v  84.3366 56.2130 -6.7398
v  14.4506 63.2016 -6.7398
v  84.3366 63.2016 -6.7398
v  98.3138 7.2928 -0.0308
v  98.3138 7.2928 -6.7398
v  98.3138 14.2814 -6.7398
v  98.3138 14.2814 -0.0308
v  98.3138 21.2700 -0.0308
v  98.3138 21.2700 -6.7398
v  98.3138 28.2586 -6.7398
v  98.3138 28.2586 -0.0308
v  98.3138 35.2472 -0.0307
v  98.3138 35.2472 -6.7398
v  98.3138 42.2358 -6.7398
v  98.3138 42.2358 -0.0307
v  98.3138 49.2244 -0.0307
v  98.3138 49.2244 -6.7398
v  98.3138 56.2130 -6.7398
v  98.3138 56.2130 -0.0307
v  0.4734 63.2016 -0.0307
v  0.4734 63.2016 -6.7398
v  0.4734 56.2130 -6.7398
v  0.4734 56.2130 -0.0307
v  0.4734 49.2244 -0.0307
v  0.4734 49.2244 -6.7398
v  0.4734 42.2358 -6.7398
v  0.4734 42.2358 -0.0307
v  0.4734 35.2472 -0.0307
v  0.4734 35.2472 -6.7398
v  0.4734 28.2586 -6.7398
v  0.4734 28.2586 -0.0308
v  0.4734 21.2700 -0.0308
v  0.4734 21.2700 -6.7398
v  0.4734 14.2814 -6.7398
v  0.4734 14.2814 -0.0308
v  0.4734 7.2928 -0.0308
v  0.4734 7.2928 -6.7398
v  0.4734 0.3042 -6.7398
v  0.4734 0.3042 -0.0308
# 76 vertices

vn 0.0000 -0.0000 1.0000
vn 0.0000 0.0000 -1.0000
vn 0.0000 -1.0000 -0.0000
vn 1.0000 0.0000 -0.0000
vn 0.0000 1.0000 0.0000
vn -1.0000 0.0000 -0.0000
# 6 vertex normals

vt 0.1116 0.0005 0.0000
vt 0.6432 0.0005 0.0000
vt 0.6432 0.0537 0.0000
vt 0.1116 0.0537 0.0000
vt 0.6432 0.1068 0.0000
vt 0.1116 0.1068 0.0000
vt 0.6432 0.1600 0.0000
vt 0.1116 0.1600 0.0000
vt 0.6432 0.2131 0.0000
vt 0.1116 0.2131 0.0000
vt 0.6432 0.2663 0.0000
vt 0.1116 0.2663 0.0000
vt 0.6432 0.3195 0.0000
vt 0.1116 0.3195 0.0000
vt 0.6432 0.3726 0.0000
vt 0.1116 0.3726 0.0000
vt 0.6432 0.4258 0.0000
vt 0.1116 0.4258 0.0000
vt 0.6432 0.4790 0.0000
vt 0.1116 0.4790 0.0000
vt 0.1068 0.9625 0.0000
vt 0.1068 0.9093 0.0000
vt 0.6384 0.9093 0.0000
vt 0.6384 0.9625 0.0000
vt 0.1068 0.8562 0.0000
vt 0.6384 0.8562 0.0000
vt 0.1068 0.8030 0.0000
vt 0.6384 0.8030 0.0000
vt 0.1068 0.7499 0.0000
vt 0.6384 0.7499 0.0000
vt 0.1068 0.6967 0.0000
vt 0.6384 0.6967 0.0000
vt 0.1068 0.6435 0.0000
vt 0.6384 0.6435 0.0000
vt 0.1068 0.5904 0.0000
vt 0.6384 0.5904 0.0000
vt 0.1068 0.5372 0.0000
vt 0.6384 0.5372 0.0000
vt 0.1068 0.4841 0.0000
vt 0.6384 0.4841 0.0000
vt 0.9485 0.1116 0.0000
vt 0.9995 0.1116 0.0000
vt 0.9995 0.6432 0.0000
vt 0.9485 0.6432 0.0000
vt 0.7665 0.8766 0.0000
vt 0.8176 0.8766 0.0000
vt 0.8176 0.9298 0.0000
vt 0.7665 0.9298 0.0000
vt 0.7665 0.6468 0.0000
vt 0.8176 0.6468 0.0000
vt 0.8176 0.7000 0.0000
vt 0.7665 0.7000 0.0000
vt 0.7617 0.5319 0.0000
vt 0.8128 0.5319 0.0000
vt 0.8128 0.5851 0.0000
vt 0.7617 0.5851 0.0000
vt 0.7091 0.4824 0.0000
vt 0.7091 0.4314 0.0000
vt 0.7622 0.4314 0.0000
vt 0.7622 0.4824 0.0000
vt 0.8288 0.8766 0.0000
vt 0.8798 0.8766 0.0000
vt 0.8798 0.9298 0.0000
vt 0.8288 0.9298 0.0000
vt 0.8288 0.8192 0.0000
vt 0.8798 0.8192 0.0000
vt 0.8798 0.8724 0.0000
vt 0.8288 0.8724 0.0000
vt 0.8288 0.7617 0.0000
vt 0.8798 0.7617 0.0000
vt 0.8798 0.8149 0.0000
vt 0.8288 0.8149 0.0000
vt 0.7665 0.7617 0.0000
vt 0.8176 0.7617 0.0000
vt 0.8176 0.8149 0.0000
vt 0.7665 0.8149 0.0000
vt 0.6516 0.4824 0.0000
vt 0.6516 0.4314 0.0000
vt 0.7048 0.4314 0.0000
vt 0.7048 0.4824 0.0000
vt 0.8862 0.0053 0.0000
vt 0.9373 0.0053 0.0000
vt 0.9373 0.5369 0.0000
vt 0.8862 0.5369 0.0000
vt 0.6468 0.5351 0.0000
vt 0.6468 0.4841 0.0000
vt 0.7000 0.4841 0.0000
vt 0.7000 0.5351 0.0000
vt 0.7665 0.8192 0.0000
vt 0.8176 0.8192 0.0000
vt 0.8176 0.8724 0.0000
vt 0.7665 0.8724 0.0000
vt 0.8128 0.6425 0.0000
vt 0.7617 0.6425 0.0000
vt 0.7617 0.5894 0.0000
vt 0.8128 0.5894 0.0000
vt 0.8240 0.5894 0.0000
vt 0.8750 0.5894 0.0000
vt 0.8750 0.6425 0.0000
vt 0.8240 0.6425 0.0000
vt 0.8240 0.5319 0.0000
vt 0.8750 0.5319 0.0000
vt 0.8750 0.5851 0.0000
vt 0.8240 0.5851 0.0000
vt 0.7665 0.7043 0.0000
vt 0.8176 0.7043 0.0000
vt 0.8176 0.7575 0.0000
vt 0.7665 0.7575 0.0000
vt 0.8288 0.7043 0.0000
vt 0.8798 0.7043 0.0000
vt 0.8798 0.7575 0.0000
vt 0.8288 0.7575 0.0000
vt 0.8288 0.6468 0.0000
vt 0.8798 0.6468 0.0000
vt 0.8798 0.7000 0.0000
vt 0.8288 0.7000 0.0000
vt 0.6952 0.9150 0.0000
vt 0.6952 0.9660 0.0000
vt 0.6421 0.9660 0.0000
vt 0.6421 0.9150 0.0000
vt 0.7495 0.0537 0.0000
vt 0.7495 0.1068 0.0000
vt 0.8910 0.9612 0.0000
vt 0.8910 0.9102 0.0000
vt 0.9973 0.9102 0.0000
vt 0.9973 0.9612 0.0000
vt 0.7448 0.8562 0.0000
vt 0.7448 0.9093 0.0000
vt 0.9973 0.8575 0.0000
vt 0.9973 0.9085 0.0000
vt 0.8910 0.9085 0.0000
vt 0.8910 0.8575 0.0000
vt 0.7495 0.1600 0.0000
vt 0.7495 0.2131 0.0000
vt 0.7665 0.4776 0.0000
vt 0.7665 0.4266 0.0000
vt 0.8729 0.4266 0.0000
vt 0.8729 0.4776 0.0000
vt 0.7448 0.7499 0.0000
vt 0.7448 0.8030 0.0000
vt 0.8729 0.3213 0.0000
vt 0.8729 0.3723 0.0000
vt 0.7665 0.3723 0.0000
vt 0.7665 0.3213 0.0000
vt 0.7495 0.2663 0.0000
vt 0.7495 0.3195 0.0000
vt 0.7665 0.2670 0.0000
vt 0.7665 0.2159 0.0000
vt 0.8729 0.2159 0.0000
vt 0.8729 0.2670 0.0000
vt 0.7448 0.6435 0.0000
vt 0.7448 0.6967 0.0000
vt 0.8729 0.1633 0.0000
vt 0.8729 0.2143 0.0000
vt 0.7665 0.2143 0.0000
vt 0.7665 0.1633 0.0000
vt 0.7495 0.3726 0.0000
vt 0.7495 0.4258 0.0000
vt 0.7665 0.1617 0.0000
vt 0.7665 0.1106 0.0000
vt 0.8729 0.1106 0.0000
vt 0.8729 0.1617 0.0000
vt 0.7448 0.5372 0.0000
vt 0.7448 0.5904 0.0000
vt 0.8729 0.0580 0.0000
vt 0.8729 0.1090 0.0000
vt 0.7665 0.1090 0.0000
vt 0.7665 0.0580 0.0000
vt 0.0053 0.4790 0.0000
vt 0.0053 0.4258 0.0000
vt 0.9373 0.6432 0.0000
vt 0.8862 0.6432 0.0000
vt 0.0005 0.5372 0.0000
vt 0.0005 0.4841 0.0000
vt 0.8729 0.0053 0.0000
vt 0.8729 0.0563 0.0000
vt 0.7665 0.0563 0.0000
vt 0.7665 0.0053 0.0000
vt 0.0053 0.3726 0.0000
vt 0.0053 0.3195 0.0000
vt 0.8910 0.8559 0.0000
vt 0.8910 0.8048 0.0000
vt 0.9973 0.8048 0.0000
vt 0.9973 0.8559 0.0000
vt 0.0005 0.6435 0.0000
vt 0.0005 0.5904 0.0000
vt 0.9973 0.7522 0.0000
vt 0.9973 0.8032 0.0000
vt 0.8910 0.8032 0.0000
vt 0.8910 0.7522 0.0000
vt 0.0053 0.2663 0.0000
vt 0.0053 0.2131 0.0000
vt 0.7665 0.4250 0.0000
vt 0.7665 0.3739 0.0000
vt 0.8729 0.3739 0.0000
vt 0.8729 0.4250 0.0000
vt 0.0005 0.7499 0.0000
vt 0.0005 0.6967 0.0000
vt 0.8729 0.4793 0.0000
vt 0.8729 0.5303 0.0000
vt 0.7665 0.5303 0.0000
vt 0.7665 0.4793 0.0000
vt 0.0053 0.1600 0.0000
vt 0.0053 0.1068 0.0000
vt 0.7665 0.3196 0.0000
vt 0.7665 0.2686 0.0000
vt 0.8729 0.2686 0.0000
vt 0.8729 0.3196 0.0000
vt 0.0005 0.8562 0.0000
vt 0.0005 0.8030 0.0000
vt 0.9973 0.6468 0.0000
vt 0.9973 0.6979 0.0000
vt 0.8910 0.6979 0.0000
vt 0.8910 0.6468 0.0000
vt 0.0053 0.0537 0.0000
vt 0.0053 0.0005 0.0000
vt 0.8910 0.7505 0.0000
vt 0.8910 0.6995 0.0000
vt 0.9973 0.6995 0.0000
vt 0.9973 0.7505 0.0000
vt 0.0005 0.9625 0.0000
vt 0.0005 0.9093 0.0000
vt 0.9485 0.0053 0.0000
vt 0.9995 0.0053 0.0000
# 224 texture coords

g LowPolyWall
s 2
f 1/1/1 2/2/1 3/3/1 4/4/1 
f 4/4/1 3/3/1 5/5/1 6/6/1 
f 6/6/1 5/5/1 7/7/1 8/8/1 
f 8/8/1 7/7/1 9/9/1 10/10/1 
f 10/10/1 9/9/1 11/11/1 12/12/1 
f 12/12/1 11/11/1 13/13/1 14/14/1 
f 14/14/1 13/13/1 15/15/1 16/16/1 
f 16/16/1 15/15/1 17/17/1 18/18/1 
f 18/18/1 17/17/1 19/19/1 20/20/1 
s 4
f 21/21/2 22/22/2 23/23/2 24/24/2 
f 22/22/2 25/25/2 26/26/2 23/23/2 
f 25/25/2 27/27/2 28/28/2 26/26/2 
f 27/27/2 29/29/2 30/30/2 28/28/2 
f 29/29/2 31/31/2 32/32/2 30/30/2 
f 31/31/2 33/33/2 34/34/2 32/32/2 
f 33/33/2 35/35/2 36/36/2 34/34/2 
f 35/35/2 37/37/2 38/38/2 36/36/2 
f 37/37/2 39/39/2 40/40/2 38/38/2 
s 8
f 1/41/3 21/42/3 24/43/3 2/44/3 
s 16
f 2/45/4 24/46/4 23/47/4 3/48/4 
f 41/49/4 42/50/4 43/51/4 44/52/4 
f 5/53/4 26/54/4 28/55/4 7/56/4 
f 45/57/4 46/58/4 47/59/4 48/60/4 
f 9/61/4 30/62/4 32/63/4 11/64/4 
f 49/65/4 50/66/4 51/67/4 52/68/4 
f 13/69/4 34/70/4 36/71/4 15/72/4 
f 53/73/4 54/74/4 55/75/4 56/76/4 
f 17/77/4 38/78/4 40/79/4 19/80/4 
s 32
f 19/81/5 40/82/5 39/83/5 20/84/5 
s 64
f 57/85/6 58/86/6 59/87/6 60/88/6 
f 18/89/6 37/90/6 35/91/6 16/92/6 
f 61/93/6 62/94/6 63/95/6 64/96/6 
f 14/97/6 33/98/6 31/99/6 12/100/6 
f 65/101/6 66/102/6 67/103/6 68/104/6 
f 10/105/6 29/106/6 27/107/6 8/108/6 
f 69/109/6 70/110/6 71/111/6 72/112/6 
f 6/113/6 25/114/6 22/115/6 4/116/6 
f 73/117/6 74/118/6 75/119/6 76/120/6 
s off
f 5/5/1 3/3/1 41/121/1 44/122/1 
f 3/123/3 23/124/3 42/125/3 41/126/3 
f 23/23/2 26/26/2 43/127/2 42/128/2 
f 26/129/5 5/130/5 44/131/5 43/132/5 
f 9/9/1 7/7/1 45/133/1 48/134/1 
f 7/135/3 28/136/3 46/137/3 45/138/3 
f 28/28/2 30/30/2 47/139/2 46/140/2 
f 30/141/5 9/142/5 48/143/5 47/144/5 
f 13/13/1 11/11/1 49/145/1 52/146/1 
f 11/147/3 32/148/3 50/149/3 49/150/3 
f 32/32/2 34/34/2 51/151/2 50/152/2 
f 34/153/5 13/154/5 52/155/5 51/156/5 
f 17/17/1 15/15/1 53/157/1 56/158/1 
f 15/159/3 36/160/3 54/161/3 53/162/3 
f 36/36/2 38/38/2 55/163/2 54/164/2 
f 38/165/5 17/166/5 56/167/5 55/168/5 
f 18/18/1 20/20/1 57/169/1 60/170/1 
f 20/84/5 39/83/5 58/171/5 57/172/5 
f 39/39/2 37/37/2 59/173/2 58/174/2 
f 37/175/3 18/176/3 60/177/3 59/178/3 
f 14/14/1 16/16/1 61/179/1 64/180/1 
f 16/181/5 35/182/5 62/183/5 61/184/5 
f 35/35/2 33/33/2 63/185/2 62/186/2 
f 33/187/3 14/188/3 64/189/3 63/190/3 
f 10/10/1 12/12/1 65/191/1 68/192/1 
f 12/193/5 31/194/5 66/195/5 65/196/5 
f 31/31/2 29/29/2 67/197/2 66/198/2 
f 29/199/3 10/200/3 68/201/3 67/202/3 
f 6/6/1 8/8/1 69/203/1 72/204/1 
f 8/205/5 27/206/5 70/207/5 69/208/5 
f 27/27/2 25/25/2 71/209/2 70/210/2 
f 25/211/3 6/212/3 72/213/3 71/214/3 
f 1/1/1 4/4/1 73/215/1 76/216/1 
f 4/217/5 22/218/5 74/219/5 73/220/5 
f 22/22/2 21/21/2 75/221/2 74/222/2 
f 21/42/3 1/41/3 76/223/3 75/224/3 
# 74 polygons

