# 3ds Max Wavefront OBJ Exporter v0.97b - (c)2007 guruware
# File Created: 14.09.2016 23:09:18

#
# object LowPolyWall
#

v  0.0000 131.8000 5.5382
v  0.0000 131.8000 -5.5382
v  -0.0000 -0.0000 -5.5382
v  -0.0000 -0.0000 5.5382
v  131.5000 131.8000 5.5382
v  131.5000 -0.0000 5.5382
v  131.5000 -0.0000 -5.5382
v  131.5000 131.8000 -5.5382
# 8 vertices

vn -1.0000 0.0000 -0.0000
vn 1.0000 -0.0000 -0.0000
vn 0.0000 0.0000 1.0000
vn -0.0000 -1.0000 -0.0000
vn 0.0000 0.0000 -1.0000
vn 0.0000 1.0000 -0.0000
# 6 vertex normals

vt 0.6245 0.4991 0.0000
vt 0.3755 0.4991 0.0000
vt 0.3755 0.2501 0.0000
vt 0.6245 0.2501 0.0000
vt 0.6245 0.7481 0.0000
vt 0.6245 0.9971 0.0000
vt 0.3755 0.9971 0.0000
vt 0.3755 0.7481 0.0000
vt 0.8735 0.2501 0.0000
vt 0.8735 0.4991 0.0000
vt 0.3755 0.0011 0.0000
vt 0.6245 0.0011 0.0000
vt 0.1265 0.4991 0.0000
vt 0.1265 0.2501 0.0000
# 14 texture coords

g LowPolyWall
s 2
f 1/1/1 2/2/1 3/3/1 4/4/1 
s 4
f 5/5/2 6/6/2 7/7/2 8/8/2 
s 8
f 1/1/3 4/4/3 6/9/3 5/10/3 
s 16
f 4/4/4 3/3/4 7/11/4 6/12/4 
s 32
f 3/3/5 2/2/5 8/13/5 7/14/5 
s 64
f 2/2/6 1/1/6 5/5/6 8/8/6 
# 6 polygons

